# AST/ASF file generated using VICON BodyLanguage
# -----------------------------------------------
:version 1.10
:name VICON
:units
  mass 1.0
  length 0.45
  angle deg
:documentation
   .ast/.asf automatically generated from VICON data using
   VICON BodyBuilder and BodyLanguage model FoxedUp or BRILLIANT.MOD
:root
   order TX TY TZ RX RY RZ
   axis XYZ
   position 0 0 0  
   orientation 0 0 0 
:bonedata
  begin
     id 1 
     name lhipjoint
     direction 0.576517 -0.752066 0.319413 
     length 2.45433 
     axis 0 0 0  XYZ
  end
  begin
     id 2 
     name lfemur
     direction 0.34202 -0.939693 0  
     length 7.54459  
     axis 0 0 20  XYZ
    dof rx ry rz
    limits (-160.0 20.0)
           (-70.0 70.0)
           (-60.0 70.0)
  end
  begin
     id 3 
     name ltibia
     direction 0.34202 -0.939693 0   
     length 7.73986   
     axis 0 0 20   XYZ
    dof rx
    limits (-10.0 170.0)
  end
  begin
     id 4 
     name lfoot
     direction 0.090693 -0.249177 0.964202   
     length 2.28437   
     axis -90 7.62852e-016 20   XYZ
    dof rx rz
    limits (-45.0 90.0)
           (-70.0 20.0)
  end
  begin
     id 5 
     name ltoes
     direction 1.5356e-011 -4.21928e-011 1   
     length 1.14243   
     axis -90 7.62852e-016 20   XYZ
    dof rx
    limits (-90.0 20.0)
  end
  begin
     id 6 
     name rhipjoint
     direction -0.573937 -0.753736 0.320122   
     length 2.44889  
     axis 0 0 0  XYZ 
  end
  begin
     id 7 
     name rfemur
     direction -0.34202 -0.939693 0   
     length 7.50166   
     axis 0 0 -20   XYZ
    dof rx ry rz
    limits (-160.0 20.0)
           (-70.0 70.0)
           (-70.0 60.0)
  end
  begin
     id 8 
     name rtibia
     direction -0.34202 -0.939693 0   
     length 7.54266   
     axis 0 0 -20   XYZ
    dof rx
    limits (-10.0 170.0)
 end
 begin
     id 9 
     name rfoot
     direction -0.114017 -0.31326 0.942798   
     length 2.34212  
     axis -90 -7.62852e-016 -20   XYZ
    dof rx rz
    limits (-45.0 90.0)
           (-20.0 70.0)
  end
  begin
     id 10 
     name rtoes
     direction -1.53557e-011 -4.21867e-011 1   
     length 1.16246   
     axis -90 -7.62852e-016 -20   XYZ
    dof rx
    limits (-90.0 20.0)
  end
  begin
     id 11 
     name lowerback
     direction -0.0228371 0.999155 -0.034167   
     length 2.0537   
     axis 0 0 0   XYZ
    dof rx ry rz
    limits (-20.0 45.0)
           (-30.0 30.0)
           (-30.0 30.0)
  end
  begin
     id 12 
     name upperback
     direction 0.0198981 0.999794 0.00389455   
     length 2.05302   
     axis 0 0 0   XYZ
    dof rx ry rz
    limits (-20.0 45.0)
           (-30.0 30.0)
           (-30.0 30.0)
  end
  begin
     id 13 
     name thorax
     direction 0.0304566 0.99935 0.0192987   
     length 2.05315   
     axis 0 0 0   XYZ
    dof rx ry rz
    limits (-20.0 45.0)
           (-30.0 30.0)
           (-30.0 30.0)
  end
  begin
     id 14 
     name lowerneck
     direction -0.0196762 0.99417 0.106017   
     length 1.82056   
     axis 0 0 0   XYZ
    dof rx ry rz
    limits (-20.0 45.0)
           (-30.0 30.0)
           (-30.0 30.0)
  end
  begin
     id 15 
     name upperneck
     direction 0.00517787 0.9802 -0.197944   
     length 1.83835   
     axis 0 0 0   XYZ
    dof rx ry rz
    limits (-20.0 45.0)
           (-30.0 30.0)
           (-30.0 30.0)
  end
  begin
     id 16
     name head
     direction 0.00211419 0.996945 -0.078081  
     length 1.85629  
     axis 0 0 0   XYZ
    dof rx ry rz
    limits (-20.0 45.0)
           (-30.0 30.0)
           (-30.0 30.0)
  end
  begin
     id 17 
     name lclavicle
     direction 0.930001 0.365811 -0.0357824  
     length 3.81961  
     axis 0 0 0   XYZ
    dof ry rz
    limits (-20.0 10.0)
           (0.0 20.0)
  end
  begin
     id 18 
     name lhumerus
     direction 1 -4.48968e-011 -3.06644e-027   
     length 5.14507   
     axis 180 -30 -90   XYZ
    dof rx ry rz
    limits (-60.0 90.0)
           (-90.0 90.0)
           (-90.0 90.0)
  end
  begin
     id 19
     name lradius
     direction 1 -4.48965e-011 9.06925e-028   
     length 3.50646   
     axis 180 -30 -90   XYZ
    dof rx
    limits (-10.0 170.0)
  end
  begin
     id 20
     name lwrist
     direction 1 -4.48957e-011 1.03922e-027   
     length 1.75323   
     axis -2.56395e-016 90 90   XYZ
    dof ry
    limits (-180.0 0.0)
 end
  begin
     id 21 
     name lhand
     direction 1 -4.48967e-011 2.08017e-027   
     length 0.629969   
     axis -1.32723e-015 90 90   XYZ
    dof rx rz
    limits (-90.0 90.0)
           (-45.0 45.0)
  end
  begin
     id 22 
     name lfingers
     direction 1 -4.49089e-011 4.20095e-027   
     length 0.507897   
     axis -2.6545e-015 90 90   XYZ
    dof rx
    limits (0.0 90.0)
  end
  begin
     id 23
     name lthumb
     direction 0.707107 -6.35001e-011 0.707107   
     length 0.729241   
     axis -90 45 5.05613e-014   XYZ
    dof rx rz
    limits (-45.0 45.0)
           (-45.0 45.0)
  end
  begin
     id 24 
     name rclavicle
     direction -0.881882 0.464123 -0.0829113   
     length 3.47515  
     axis 0 0 0   XYZ 
    dof ry rz
    limits (-10.0 20.0)
           (-20.0 0.0)
  end
  begin
     id 25 
     name rhumerus
     direction -1 -4.48961e-011 -1.55672e-027  
     length 5.232   
     axis 180 30 90   XYZ
    dof rx ry rz
    limits (-90.0 60.0)
           (-90.0 90.0)
           (-90.0 90.0)
  end
  begin
     id 26 
     name rradius
     direction -1 -4.48963e-011 6.18178e-029   
     length 3.65641   
     axis 180 30 90   XYZ
    dof rx
    limits (-10.0 170.0)
  end
  begin
     id 27 
     name rwrist
     direction -1 -4.48982e-011 1.04136e-027   
     length 1.8282   
     axis -2.56395e-016 -90 -90   XYZ
    dof ry
    limits (-180.0 0.0)
  end
  begin
     id 28
     name rhand
     direction -1 -4.48929e-011 2.07378e-027   
     length 0.656807   
     axis -1.32723e-015 -90 -90   XYZ
    dof rx rz
    limits (-90.0 90.0)
           (-45.0 45.0)
  end
  begin
     id 29
     name rfingers
     direction -1 -4.489e-011 4.13816e-027   
     length 0.529535   
     axis -2.6545e-015 -90 -90   XYZ
    dof rx
    limits (0.0 90.0)
  end
  begin
     id 30
     name rthumb
     direction -0.707107 -6.34843e-011 0.707107   
     length 0.760309   
     axis -90 -45 -5.05613e-014   XYZ
    dof rx rz
    limits (-45.0 45.0)
           (-45.0 45.0)
  end
:hierarchy
  begin
    root lhipjoint rhipjoint lowerback
    lhipjoint lfemur
    lfemur ltibia
    ltibia lfoot
    lfoot ltoes
    rhipjoint rfemur
    rfemur rtibia
    rtibia rfoot
    rfoot rtoes
    lowerback upperback
    upperback thorax
    thorax lowerneck lclavicle rclavicle
    lowerneck upperneck
    upperneck head
    lclavicle lhumerus
    lhumerus lradius
    lradius lwrist
    lwrist lhand lthumb
    lhand lfingers
    rclavicle rhumerus
    rhumerus rradius
    rradius rwrist
    rwrist rhand rthumb
    rhand rfingers
  end

#!OML:ASF H:\ManfredETheater\Project 1\Capture day 1\Session 1\subject.ASF
:FULLY-SPECIFIED
:DEGREES
1
root -2.85577 16.5345 48.5564 -158.803 3.32132 -176.115
lowerback 12.3911 -0.257438 2.93475
upperback 0.0221313 0.562222 3.58752
thorax -6.9608 0.333778 2.02654
lowerneck -15.4116 -0.0438461 -0.656816
upperneck 9.99425 0.543922 -3.07509
head 5.54091 0.0238605 -0.813784
rclavicle 2.78299e-015 -1.23246e-014
rhumerus -39.5142 1.50212 -86.3914
rradius 48.241
rwrist 2.69229
rhand -17.2435 -5.74354
rfingers 7.12502
rthumb 9.00033 -35.5315
lclavicle 2.78299e-015 -1.23246e-014
lhumerus -35.8659 -15.3134 98.9583
lradius 71.4481
lwrist 4.04201
lhand -21.1898 -5.71659
lfingers 7.12502
lthumb 5.19107 24.1998
rfemur -28.5747 -1.30617 27.5422
rtibia 38.2376
rfoot -28.7464 -8.74623
rtoes -5.3041
lfemur -36.5254 5.51532 -13.8069
ltibia 73.2528
lfoot -13.6201 -1.57729
ltoes -4.84253
2
root -2.83167 16.5046 48.393 -158.906 3.03882 -176.335
lowerback 12.4323 -0.319028 3.03181
upperback 0.214762 0.492951 3.54567
thorax -6.77639 0.300986 1.93716
lowerneck -15.5086 -0.0795974 -0.615154
upperneck 9.70128 0.490493 -3.1428
head 5.46405 -0.00197935 -0.846018
rclavicle -1.07344e-014 -2.14687e-014
rhumerus -39.3786 1.84911 -86.5588
rradius 48.6104
rwrist 2.64287
rhand -17.3192 -5.65014
rfingers 7.12502
rthumb 8.92738 -35.4413
lclavicle -1.07344e-014 -2.14687e-014
lhumerus -35.8965 -15.3585 99.0752
lradius 72.0119
lwrist 4.34503
lhand -21.2891 -5.89307
lfingers 7.12502
lthumb 5.09519 24.0257
rfemur -27.9135 -1.30272 27.4467
rtibia 38.4606
rfoot -29.2849 -9.35483
rtoes -5.38632
lfemur -37.6705 5.24589 -13.9578
ltibia 74.5225
lfoot -13.2302 -2.1328
ltoes -1.96551
3
root -2.80699 16.4682 48.2365 -158.835 2.98557 -176.455
lowerback 12.5826 -0.264061 2.99327
upperback 0.231017 0.574779 3.57351
thorax -6.84549 0.3443 1.97426
lowerneck -15.5178 -0.132417 -0.664642
upperneck 9.47831 0.437907 -3.22179
head 5.39495 -0.0308591 -0.866833
rclavicle -8.34896e-015 7.15625e-015
rhumerus -39.3598 2.32406 -86.6786
rradius 48.9095
rwrist 2.41141
rhand -17.5669 -5.57304
rfingers 7.12502
rthumb 8.6883 -35.3742
lclavicle -8.34896e-015 7.15625e-015
lhumerus -36.1464 -15.335 99.3511
lradius 72.5266
lwrist 4.5414
lhand -21.5199 -6.16229
lfingers 7.12502
lthumb 4.87236 23.7617
rfemur -27.5234 -1.15026 27.4039
rtibia 38.7658
rfoot -29.7732 -9.98
rtoes -6.02833
lfemur -39.0611 5.26504 -14.139
ltibia 75.6983
lfoot -13.6198 -2.54784
ltoes -2.8428
4
root -2.78196 16.4309 48.0755 -158.853 2.7498 -176.696
lowerback 12.8705 -0.282656 2.88938
upperback 0.166828 0.559372 3.62041
thorax -7.07763 0.340669 2.08865
lowerneck -15.3582 -0.1955 -0.739275
upperneck 9.27824 0.378455 -3.32614
head 5.30558 -0.0640741 -0.891593
rclavicle -9.14409e-015 -2.54444e-014
rhumerus -39.498 2.88137 -86.7568
rradius 49.2153
rwrist 2.17277
rhand -17.6335 -5.1709
rfingers 7.12502
rthumb 8.62402 -34.9748
lclavicle -9.14409e-015 -2.54444e-014
lhumerus -36.5791 -15.2361 99.6922
lradius 73.0568
lwrist 4.80649
lhand -21.6494 -6.37638
lfingers 7.12502
lthumb 4.74734 23.5504
rfemur -27.0092 -1.10463 27.2796
rtibia 39.0761
rfoot -30.4765 -10.5871
rtoes -6.56607
lfemur -40.4224 5.10627 -14.4157
ltibia 76.7653
lfoot -14.8979 -2.69405
ltoes -6.29864
5
root -2.75701 16.3921 47.9099 -158.79 2.52602 -176.819
lowerback 12.8839 -0.240502 2.97933
upperback 0.245414 0.629783 3.60058
thorax -7.00133 0.374396 2.00224
lowerneck -15.3566 -0.308956 -0.788009
upperneck 9.01931 0.230439 -3.32054
head 5.22183 -0.132862 -0.893993
rclavicle 7.55382e-015 5.80451e-014
rhumerus -39.2142 3.13812 -86.9588
rradius 49.49
rwrist 1.83345
rhand -17.5359 -5.29659
rfingers 7.12502
rthumb 8.71818 -35.0965
lclavicle 7.55382e-015 5.80451e-014
lhumerus -36.7281 -15.3492 99.8211
lradius 73.549
lwrist 5.31807
lhand -21.6233 -6.54476
lfingers 7.12502
lthumb 4.77247 23.3815
rfemur -26.5919 -1.15564 27.2709
rtibia 39.4334
rfoot -30.9319 -11.0825
rtoes -7.75867
lfemur -42.0501 5.06625 -14.6466
ltibia 77.6479
lfoot -15.4673 -2.93484
ltoes -6.0514
6
root -2.73297 16.3517 47.7475 -158.755 2.32894 -176.968
lowerback 13 -0.212562 3.0057
upperback 0.276481 0.681695 3.61001
thorax -7.03429 0.400995 1.98769
lowerneck -15.2991 -0.401616 -0.85444
upperneck 8.78326 0.12046 -3.35721
head 5.13706 -0.185898 -0.903102
rclavicle 7.55382e-015 6.36111e-015
rhumerus -39.1056 3.5142 -87.1062
rradius 49.8227
rwrist 1.55675
rhand -17.5604 -5.22209
rfingers 7.12502
rthumb 8.69455 -35.023
lclavicle 7.55382e-015 6.36111e-015
lhumerus -36.9757 -15.3691 100.033
lradius 74.0417
lwrist 5.65727
lhand -21.7048 -6.77182
lfingers 7.12502
lthumb 4.69381 23.1562
rfemur -26.1681 -1.17403 27.2387
rtibia 39.8173
rfoot -31.474 -11.5864
rtoes -8.66996
lfemur -43.566 5.00577 -14.8952
ltibia 78.4892
lfoot -15.9851 -3.17636
ltoes -6.68978
7
root -2.70935 16.3102 47.584 -158.728 2.11462 -177.106
lowerback 13.1316 -0.179209 3.05018
upperback 0.303666 0.745653 3.62268
thorax -7.08012 0.43311 1.96403
lowerneck -15.2331 -0.509335 -0.939662
upperneck 8.55864 -0.00737426 -3.37935
head 5.05437 -0.247154 -0.90598
rclavicle -9.54166e-015 -1.59028e-014
rhumerus -38.9812 3.87225 -87.2588
rradius 50.1792
rwrist 1.26474
rhand -17.5951 -5.14819
rfingers 7.12502
rthumb 8.66106 -34.9505
lclavicle -9.54166e-015 -1.59028e-014
lhumerus -37.2357 -15.3915 100.243
lradius 74.5092
lwrist 5.97859
lhand -21.7982 -7.03042
lfingers 7.12502
lthumb 4.60361 22.8996
rfemur -25.7485 -1.23958 27.2249
rtibia 40.2373
rfoot -32.0054 -12.0331
rtoes -9.67219
lfemur -45.1236 4.95771 -15.1564
ltibia 79.2056
lfoot -16.5032 -3.38671
ltoes -7.35189
8
root -2.68626 16.2679 47.4188 -158.724 1.87152 -177.231
lowerback 13.2698 -0.145574 3.13066
upperback 0.346769 0.816698 3.6331
thorax -7.1122 0.468199 1.91583
lowerneck -15.1772 -0.632453 -1.03588
upperneck 8.34227 -0.155072 -3.38528
head 4.97583 -0.317413 -0.903582
rclavicle 2.38542e-015 -3.97569e-015
rhumerus -38.822 4.20171 -87.4219
rradius 50.5734
rwrist 0.967449
rhand -17.6491 -5.07562
rfingers 7.12502
rthumb 8.609 -34.8801
lclavicle 2.38542e-015 -3.97569e-015
lhumerus -37.4818 -15.4222 100.434
lradius 74.9468
lwrist 6.2824
lhand -21.9137 -7.31942
lfingers 7.12502
lthumb 4.4921 22.6129
rfemur -25.3056 -1.36466 27.2307
rtibia 40.6872
rfoot -32.528 -12.3961
rtoes -10.7236
lfemur -46.7056 4.91452 -15.4233
ltibia 79.8106
lfoot -16.9933 -3.58954
ltoes -7.85685
